<svg viewBox="0 0 24 24" xmlns="http://www.w3.org/2000/svg">
  <!-- Pirate Weather - purple cloud -->
  <defs>
    <linearGradient id="pwGrad" x1="0%" y1="0%" x2="100%" y2="100%">
      <stop offset="0%" style="stop-color:#8B5CF6"/>
      <stop offset="100%" style="stop-color:#6D28D9"/>
    </linearGradient>
  </defs>
  <!-- Cloud shape -->
  <path d="M6 18a4 4 0 0 1-.28-8A5 5 0 0 1 15 9h.5a4.5 4.5 0 0 1 .17 9H6z" fill="url(#pwGrad)"/>
  <!-- "PW" letters in white -->
  <path d="M7.3 12h1.6a1.3 1.3 0 0 1 0 2.6h-.8V17h-.8zm.8 1.9h.7a.5.5 0 0 0 0-1h-.7zM11 12h.8l.7 3 .7-3h.7l.7 3 .7-3h.8l-1.1 5h-.8l-.7-3-.7 3h-.8z" fill="white"/>
</svg>
